#!OML:ASF H:\LiuWeirdWalks\Patient Classification 1\Patient 1\Session 1\male.ASF
:FULLY-SPECIFIED
:DEGREES
2439
root 1.00683 18.1164 37.3202 188.232 159.657 -176.558
lowerback 5.15421 1.68967 -1.09324
upperback 0.638665 2.23298 1.67448
thorax -2.33985 1.13137 2.17629
lowerneck -25.6811 3.2357 7.04151
upperneck 24.6648 5.63214 -12.3698
head 13.165 1.47745 -4.99785
rclavicle -2.52457e-014 4.77083e-015
rhumerus -26.4566 -20.0461 -74.2442
rradius 17.4409
rwrist 6.82804
rhand -15.2892 -2.47011
rfingers 7.12502
rthumb 10.8858 -32.1679
lclavicle -2.52457e-014 4.77083e-015
lhumerus -35.6972 -8.61173 91.8555
lradius 55.7744
lwrist 8.5203
lhand -9.76978 -8.30946
lfingers 7.12502
lthumb 16.2053 21.0332
rfemur -18.4728 -10.388 19.4419
rtibia 33.6067
rfoot -11.9717 -28.4938
rtoes 1.58824
lfemur -19.6436 0.820594 -21.7692
ltibia 30.4876
lfoot -15.9426 24.895
ltoes -13.3049
2440
root 0.998667 18.1192 37.3139 188.124 159.055 -176.71
lowerback 5.22714 1.91905 -0.575752
upperback 0.667968 2.56611 1.62268
thorax -2.341 1.2922 1.80624
lowerneck -25.3627 3.60349 7.32663
upperneck 24.7567 6.23726 -12.8451
head 13.2495 1.7209 -5.12838
rclavicle 1.51076e-014 2.54444e-014
rhumerus -26.9205 -20.7162 -73.8215
rradius 17.2248
rwrist 7.5928
rhand -15.2029 -2.41561
rfingers 7.12502
rthumb 10.969 -32.1091
lclavicle 1.51076e-014 2.54444e-014
lhumerus -35.6848 -9.39875 92.0924
lradius 55.7023
lwrist 8.70394
lhand -9.8106 -8.45873
lfingers 7.12502
lthumb 16.166 20.8871
rfemur -18.2996 -10.2878 19.6816
rtibia 33.4588
rfoot -11.7907 -29.1192
rtoes 1.72627
lfemur -19.6342 2.3655 -21.7417
ltibia 31.2997
lfoot -16.201 26.1727
ltoes -12.5169
2441
root 0.989983 18.1206 37.309 188.028 158.375 -176.797
lowerback 5.28973 2.14435 -0.0889165
upperback 0.643653 2.89213 1.5301
thorax -2.38416 1.44985 1.41154
lowerneck -24.8269 3.92726 7.59282
upperneck 24.7995 6.78458 -13.2771
head 13.2644 1.95258 -5.24508
rclavicle -4.07509e-014 -5.56597e-015
rhumerus -27.5294 -21.4003 -73.3733
rradius 17.0574
rwrist 8.30101
rhand -15.1418 -2.34955
rfingers 7.12502
rthumb 11.028 -32.0399
lclavicle -4.07509e-014 -5.56597e-015
lhumerus -35.8047 -10.2827 92.3456
lradius 55.6392
lwrist 9.17811
lhand -10.0003 -8.48531
lfingers 7.12502
lthumb 15.9834 20.8753
rfemur -18.1227 -10.2528 19.8523
rtibia 33.358
rfoot -11.6547 -29.7475
rtoes 1.84955
lfemur -19.6136 3.902 -21.7645
ltibia 32.1837
lfoot -16.3829 27.2119
ltoes -11.8194
2442
root 0.980991 18.1207 37.3055 187.964 157.628 -176.788
lowerback 5.31128 2.32193 0.230374
upperback 0.636056 3.14516 1.44908
thorax -2.38901 1.57247 1.13013
lowerneck -24.2878 4.29063 7.87693
upperneck 24.8236 7.3907 -13.7244
head 13.2857 2.21231 -5.36009
rclavicle 6.55989e-014 2.22639e-014
rhumerus -28.0551 -21.9719 -72.975
rradius 16.8949
rwrist 8.95788
rhand -15.1324 -2.24267
rfingers 7.12502
rthumb 11.0371 -31.9325
lclavicle 6.55989e-014 2.22639e-014
lhumerus -35.9063 -11.0501 92.5765
lradius 55.5636
lwrist 9.81106
lhand -10.2582 -8.348
lfingers 7.12502
lthumb 15.735 21.0323
rfemur -17.9408 -10.2631 19.9234
rtibia 33.274
rfoot -11.5367 -30.3913
rtoes 1.94782
lfemur -19.6044 5.4009 -21.8639
ltibia 33.1694
lfoot -16.4785 28.0782
ltoes -11.2361
2443
root 0.971881 18.1194 37.3031 187.844 156.784 -176.84
lowerback 5.33216 2.40898 0.492334
upperback 0.621008 3.27655 1.43605
thorax -2.40332 1.6354 0.959628
lowerneck -23.6612 4.71106 8.18789
upperneck 24.8182 8.07912 -14.1784
head 13.2961 2.51598 -5.46583
rclavicle -9.34288e-015 7.95139e-015
rhumerus -28.5206 -22.2838 -72.671
rradius 16.744
rwrist 9.53788
rhand -15.1353 -2.12227
rfingers 7.12502
rthumb 11.0342 -31.8122
lclavicle -9.34288e-015 7.95139e-015
lhumerus -36.0565 -11.5642 92.7376
lradius 55.484
lwrist 10.4318
lhand -10.5065 -8.11164
lfingers 7.12502
lthumb 15.4959 21.2874
rfemur -17.7121 -10.3181 20.0561
rtibia 33.1931
rfoot -11.4643 -31.0667
rtoes 2.06382
lfemur -19.5842 6.83596 -21.8621
ltibia 34.2653
lfoot -16.5137 28.7852
ltoes -10.7531
2444
root 0.963793 18.1171 37.3013 187.623 155.841 -177.062
lowerback 5.34372 2.36841 0.752581
upperback 0.604768 3.24138 1.53814
thorax -2.41754 1.61602 0.920976
lowerneck -22.9073 5.24401 8.62153
upperneck 24.7584 8.91871 -14.7128
head 13.2991 2.89689 -5.59553
rclavicle -4.59193e-014 -1.11319e-014
rhumerus -28.8599 -22.2281 -72.5202
rradius 16.5952
rwrist 10.0152
rhand -15.1511 -2.00132
rfingers 7.12502
rthumb 11.019 -31.6921
lclavicle -4.59193e-014 -1.11319e-014
lhumerus -36.2661 -11.7095 92.8079
lradius 55.4123
lwrist 11.1766
lhand -10.7943 -7.73988
lfingers 7.12502
lthumb 15.2186 21.6804
rfemur -17.4282 -10.4236 20.358
rtibia 33.0963
rfoot -11.4276 -31.7642
rtoes 2.20908
lfemur -19.5604 8.19276 -21.6467
ltibia 35.4798
lfoot -16.5544 29.3574
ltoes -10.2669
2445
root 0.956048 18.1138 37.3003 187.369 154.819 -177.328
lowerback 5.34159 2.23426 0.906708
upperback 0.585512 3.07767 1.71385
thorax -2.43583 1.53411 1.02709
lowerneck -22.0938 5.85848 9.14142
upperneck 24.6859 9.87749 -15.3048
head 13.3231 3.33804 -5.74233
rclavicle -1.31198e-014 -7.95139e-015
rhumerus -29.0927 -21.8752 -72.4867
rradius 16.4655
rwrist 10.3745
rhand -15.1536 -1.89811
rfingers 7.12502
rthumb 11.0166 -31.589
lclavicle -1.31198e-014 -7.95139e-015
lhumerus -36.4539 -11.4403 92.7142
lradius 55.2205
lwrist 11.015
lhand -10.6083 -7.49637
lfingers 7.12502
lthumb 15.3978 21.9102
rfemur -17.1276 -10.5718 20.7031
rtibia 33.0033
rfoot -11.4299 -32.4888
rtoes 2.41562
lfemur -19.5432 9.44292 -21.3458
ltibia 36.7772
lfoot -16.667 29.8018
ltoes -9.69426
2446
root 0.948023 18.1096 37.2993 187.055 153.748 -177.695
lowerback 5.3494 2.07612 1.0836
upperback 0.563049 2.88551 1.94187
thorax -2.46404 1.43817 1.17601
lowerneck -21.2643 6.47932 9.64801
upperneck 24.6518 10.8658 -15.8769
head 13.3758 3.7974 -5.87642
rclavicle 6.1822e-014 -2.38542e-014
rhumerus -29.283 -21.3825 -72.4951
rradius 16.3808
rwrist 10.5812
rhand -15.1308 -1.81842
rfingers 7.12502
rthumb 11.0386 -31.5082
lclavicle 6.1822e-014 -2.38542e-014
lhumerus -36.6247 -11.0665 92.5984
lradius 54.9788
lwrist 10.7705
lhand -10.3753 -7.25486
lfingers 7.12502
lthumb 15.6223 22.1343
rfemur -16.8282 -10.7107 21.1476
rtibia 32.9315
rfoot -11.4751 -33.2512
rtoes 2.69189
lfemur -19.5311 10.6095 -20.9057
ltibia 38.1202
lfoot -16.8155 30.133
ltoes -9.09527
2447
root 0.939695 18.1052 37.2992 186.869 152.656 -177.864
lowerback 5.29686 1.89305 0.997235
upperback 0.509455 2.64324 2.13825
thorax -2.49973 1.31987 1.44503
lowerneck -20.3008 7.13202 10.2967
upperneck 24.6256 11.9082 -16.5356
head 13.4448 4.29515 -6.06447
rclavicle 4.96962e-014 0
rhumerus -29.4765 -20.7496 -72.5595
rradius 16.3489
rwrist 10.6376
rhand -15.1081 -1.76783
rfingers 7.12502
rthumb 11.0605 -31.4564
lclavicle 4.96962e-014 0
lhumerus -36.8269 -10.6036 92.449
lradius 54.7155
lwrist 10.5788
lhand -10.1989 -7.00354
lfingers 7.12502
lthumb 15.7921 22.3723
rfemur -16.6087 -10.8738 21.4019
rtibia 32.9027
rfoot -11.5476 -34.0153
rtoes 2.99869
lfemur -19.5638 11.6607 -20.6443
ltibia 39.4555
lfoot -16.9973 30.3871
ltoes -8.49725
2448
root 0.93159 18.1006 37.3002 186.76 151.547 -177.904
lowerback 5.21763 1.8336 0.912295
upperback 0.488353 2.56219 2.26531
thorax -2.48519 1.28157 1.63162
lowerneck -19.5371 7.65947 10.7749
upperneck 24.7424 12.8162 -17.0801
head 13.585 4.7222 -6.20929
rclavicle 5.46658e-014 3.18055e-015
rhumerus -29.7065 -20.3701 -72.4889
rradius 16.4042
rwrist 10.5295
rhand -15.0843 -1.73865
rfingers 7.12502
rthumb 11.0834 -31.426
lclavicle 5.46658e-014 3.18055e-015
lhumerus -36.874 -10.5121 92.4453
lradius 54.3623
lwrist 10.5042
lhand -10.1197 -6.75963
lfingers 7.12502
lthumb 15.8684 22.6101
rfemur -16.4322 -11.0547 21.5309
rtibia 32.914
rfoot -11.6532 -34.7705
rtoes 3.28602
lfemur -19.6062 12.6238 -20.4936
ltibia 40.7495
lfoot -17.1414 30.5901
ltoes -7.98184
2449
root 0.924831 18.0953 37.3019 186.58 150.381 -178.047
lowerback 5.14847 1.80357 0.992816
upperback 0.426149 2.53062 2.37167
thorax -2.51125 1.26605 1.69955
lowerneck -18.6239 8.11802 11.3025
upperneck 24.9112 13.6399 -17.6046
head 13.7136 5.13047 -6.37905
rclavicle 9.93923e-015 4.77083e-015
rhumerus -30.0946 -20.0824 -72.3671
rradius 16.5351
rwrist 10.3224
rhand -15.0674 -1.73452
rfingers 7.12502
rthumb 11.0997 -31.421
lclavicle 9.93923e-015 4.77083e-015
lhumerus -36.9819 -10.587 92.4696
lradius 53.9796
lwrist 10.5652
lhand -10.1521 -6.51146
lfingers 7.12502
lthumb 15.8372 22.8608
rfemur -16.2422 -11.2915 21.7525
rtibia 32.96
rfoot -11.7948 -35.5087
rtoes 3.51979
lfemur -19.6108 13.5107 -20.2182
ltibia 41.9737
lfoot -17.1996 30.735
ltoes -7.57729
